<?xml version="1.0" standalone="no"?>
<!DOCTYPE svg PUBLIC "-//W3C//DTD SVG 20010904//EN"
 "http://www.w3.org/TR/2001/REC-SVG-20010904/DTD/svg10.dtd">
<svg version="1.0" xmlns="http://www.w3.org/2000/svg"
 width="499.000000pt" height="210.000000pt" viewBox="0 0 499.000000 210.000000"
 preserveAspectRatio="xMidYMid meet">

<g transform="translate(0.000000,210.000000) scale(0.100000,-0.100000)"
fill="blue" stroke="none">
<path d="M860 2081 c-264 -58 -500 -202 -648 -394 -163 -210 -244 -546 -197
-809 14 -82 61 -234 74 -243 9 -5 351 333 351 346 0 4 -4 10 -9 13 -5 3 -12
26 -15 50 -16 106 77 205 181 193 129 -14 198 -171 116 -267 -39 -47 -79 -64
-148 -62 l-60 2 -184 -182 c-177 -174 -184 -182 -174 -208 14 -36 104 -158
123 -165 22 -9 824 802 814 824 -3 9 -10 33 -15 54 -27 113 88 225 199 195
118 -32 167 -149 103 -249 -38 -60 -86 -83 -159 -76 l-54 6 -249 -249 c-136
-136 -250 -254 -251 -261 -2 -10 30 -16 132 -25 74 -7 160 -13 190 -13 l55 -1
83 78 84 79 -8 39 c-16 76 0 129 53 178 99 92 273 9 273 -130 0 -108 -123
-193 -225 -154 -28 11 -38 3 -172 -122 -71 -67 -52 -64 -288 -43 -88 8 -187
15 -221 15 l-61 0 -99 -100 c-54 -56 -100 -105 -102 -110 -6 -18 15 -41 83
-90 201 -145 469 -218 682 -185 389 58 617 187 800 452 55 80 99 176 141 308
23 73 25 97 26 260 1 201 -12 281 -67 415 -52 126 -114 218 -216 321 -151 150
-319 249 -508 301 -112 30 -318 34 -433 9z"/>


<path d="M1295 865 c-25 -24 -32 -65 -19 -100 8 -19 55 -45 82 -45 28 0 69 35
76 66 21 81 -81 138 -139 79z"/>
<path d="M1175 1325 c-25 -24 -32 -65 -19 -100 8 -19 55 -45 84 -45 27 0 80
52 80 79 0 78 -92 120 -145 66z"/>
<path d="M560 1153 c-81 -29 -79 -137 2 -166 24 -9 76 11 88 33 24 45 -1 130
-39 130 -5 0 -15 2 -23 4 -7 3 -20 2 -28 -1z"/>
</g>
<g transform="translate(0.000000,210.000000) scale(0.100000,-0.100000)"
fill="black" stroke="none">
<path d="M3940 1500 c-36 -4 -84 -16 -108 -25 -79 -32 -98 -67 -256 -460 -80
-201 -146 -367 -146 -370 0 -3 59 -4 131 -3 l132 3 36 92 36 93 43 0 c23 0 42
-4 42 -10 0 -5 -13 -43 -30 -85 -16 -42 -30 -80 -30 -86 0 -6 47 -9 127 -7
l126 3 127 312 c70 172 130 329 133 350 14 84 -35 161 -115 181 -65 16 -175
21 -248 12z m77 -235 c2 -11 -12 -56 -30 -100 l-32 -80 -42 -3 c-24 -2 -43 -1
-43 2 0 21 76 175 93 188 28 22 51 19 54 -7z"/>
<path d="M2508 1448 c-9 -24 -74 -182 -143 -353 -174 -424 -175 -427 -175
-442 0 -10 50 -13 249 -13 l248 0 37 88 c53 128 57 122 -79 122 -71 0 -115 4
-115 10 0 6 12 38 26 73 21 51 205 502 221 545 4 9 -25 12 -124 12 l-129 0
-16 -42z"/>
<path d="M3080 1487 c0 -3 -76 -192 -258 -639 -44 -108 -78 -199 -74 -202 3
-3 143 -6 312 -6 l307 0 41 104 c23 58 42 109 42 115 0 7 -57 11 -175 11 -195
0 -196 0 -155 68 l20 32 143 0 143 0 37 91 c20 49 37 97 37 105 0 11 -24 14
-140 14 -77 0 -140 2 -140 5 0 2 7 23 16 45 l16 40 186 2 185 3 43 105 c24 58
44 106 44 108 0 1 -142 2 -315 2 -173 0 -315 -1 -315 -3z"/>
<path d="M4441 1468 c-5 -13 -81 -202 -169 -421 -111 -274 -157 -400 -148
-403 7 -3 66 -3 132 -2 l119 3 56 140 56 140 34 0 c48 0 48 -22 -1 -138 -22
-53 -40 -103 -40 -111 0 -25 53 -37 159 -34 l103 3 40 95 c27 64 41 116 45
160 5 60 3 68 -20 96 l-25 30 48 27 c97 54 160 158 160 263 0 76 -26 119 -90
152 -42 21 -57 22 -247 22 -202 0 -204 0 -212 -22z m243 -184 c44 -17 -11
-114 -65 -114 -16 0 -29 2 -29 5 0 2 11 29 24 60 24 53 36 62 70 49z"/>


</g>
</svg>
